<svg xmlns="http://www.w3.org/2000/svg" viewBox="0 0 35.38 35.38"><defs><style>.cls-1{fill:#1e2021;}.cls-2{fill:#fff;}</style></defs><g id="Layer_2" data-name="Layer 2"><g id="ELEMENTS"><path class="cls-1" d="M17.69,0a17.68,17.68,0,0,0-7.22,33.83c0-.5,0-1,0-1.49.05-1.72.27-2.31,2.48-11.64a.59.59,0,0,0,0-.39A6.59,6.59,0,0,1,12.71,16c1-3.18,4.61-3.42,5.24-.8.39,1.63-.64,3.75-1.43,6.89-.65,2.59,2.4,4.43,5,2.54,2.4-1.74,3.33-5.92,3.16-8.88-.35-5.91-6.83-7.19-10.94-5.29C9,12.59,8,18.43,10.1,21.1c.27.34.47.55.38.89-.13.54-.25,1.07-.4,1.61a.56.56,0,0,1-.84.37,4.7,4.7,0,0,1-2-1.47C5.46,20.26,5,15.84,7.34,12.09,10,7.94,14.9,6.26,19.4,6.77c5.37.61,8.76,4.28,9.39,8.44a14,14,0,0,1-2.58,9.87c-3.06,3.8-8,4.05-10.31,1.72-.17-.18-.32-.39-.49-.6,0,.08-.05.16-.07.23-1.09,4.31-1.22,5.26-2.35,7.26-.17.31-.36.6-.55.9A17.69,17.69,0,1,0,17.69,0Z"/><path class="cls-2" d="M15.34,26.43c0-.07.05-.15.07-.23.17.21.32.42.49.6,2.29,2.33,7.25,2.08,10.31-1.72a14,14,0,0,0,2.58-9.87c-.63-4.16-4-7.83-9.39-8.44C14.9,6.26,10,7.94,7.34,12.09,5,15.84,5.46,20.26,7.27,22.5a4.7,4.7,0,0,0,2,1.47.56.56,0,0,0,.84-.37c.15-.54.27-1.07.4-1.61.09-.34-.11-.55-.38-.89C8,18.43,9,12.59,13.75,10.41c4.11-1.9,10.59-.62,10.94,5.29.17,3-.76,7.14-3.16,8.88-2.61,1.89-5.66.05-5-2.54.79-3.14,1.82-5.26,1.43-6.89-.63-2.62-4.23-2.38-5.24.8a6.59,6.59,0,0,0,.17,4.36.59.59,0,0,1,0,.39C10.72,30,10.5,30.62,10.45,32.34c0,.5,0,1,0,1.49a16.71,16.71,0,0,0,2,.76c.19-.3.38-.59.55-.9C14.12,31.69,14.25,30.74,15.34,26.43Z"/></g></g></svg>