<svg xmlns="http://www.w3.org/2000/svg" viewBox="0 0 35.38 35.38"><defs><style>.cls-1{fill:#1e2021;}.cls-2{fill:#fff;}</style></defs><g id="Layer_2" data-name="Layer 2"><g id="ELEMENTS"><circle class="cls-1" cx="17.69" cy="17.69" r="17.69"/><path class="cls-2" d="M27.47,11.63a8.43,8.43,0,0,1-2,.56c.32-.06.78-.63,1-.85a3.46,3.46,0,0,0,.65-1.19.08.08,0,0,0,0-.1.14.14,0,0,0-.11,0A10,10,0,0,1,24.7,11a.15.15,0,0,1-.16,0l-.2-.2A4.18,4.18,0,0,0,23.22,10a4.07,4.07,0,0,0-1.72-.28,4.19,4.19,0,0,0-1.63.46,4.32,4.32,0,0,0-1.32,1.08,3.94,3.94,0,0,0-.82,3.23c0,.1,0,.11-.08.1a12.35,12.35,0,0,1-7.95-4c-.1-.11-.15-.11-.22,0a4,4,0,0,0,.68,4.76c.16.15.32.3.49.43a4.07,4.07,0,0,1-1.53-.43C9,15.26,9,15.3,9,15.4a2.48,2.48,0,0,0,0,.46,4.08,4.08,0,0,0,2.51,3.25,3,3,0,0,0,.51.15,4.45,4.45,0,0,1-1.51,0c-.11,0-.15,0-.11.14a4.23,4.23,0,0,0,3.16,2.64l.44.06s0,0,0,0a5.06,5.06,0,0,1-2.16,1.14,7.63,7.63,0,0,1-3.28.42c-.17,0-.21,0-.26,0s0,.07.05.12c.23.15.45.28.68.41a10.72,10.72,0,0,0,2.2.87,11.67,11.67,0,0,0,11.33-2.65,11.9,11.9,0,0,0,3.14-8.67c0-.13.14-.2.23-.26A7.84,7.84,0,0,0,27.44,12a.46.46,0,0,0,.1-.3v0C27.54,11.58,27.54,11.59,27.47,11.63Z"/></g></g></svg>